<mxfile host="app.diagrams.net" modified="2021-11-06T19:21:20.400Z" agent="5.0 (Windows NT 10.0; Win64; x64) AppleWebKit/537.36 (KHTML, like Gecko) Chrome/95.0.4638.69 Safari/537.36" etag="TAWgiigKZlN0RsMEbVg5" version="15.7.0" type="github">
  <diagram id="BTSECrfvzCVwRJHnbUCh" name="Page-1">
    <mxGraphModel dx="2912" dy="1131" grid="1" gridSize="10" guides="1" tooltips="1" connect="1" arrows="1" fold="1" page="1" pageScale="1" pageWidth="850" pageHeight="1100" math="0" shadow="0">
      <root>
        <mxCell id="0" />
        <mxCell id="1" parent="0" />
        <mxCell id="SrommGHa16pYw0LAVB4a-3" value="&lt;font style=&quot;font-size: 36px&quot;&gt;Student&lt;/font&gt;" style="rounded=0;whiteSpace=wrap;html=1;" parent="1" vertex="1">
          <mxGeometry x="-12.5" y="290" width="140" height="120" as="geometry" />
        </mxCell>
        <mxCell id="SrommGHa16pYw0LAVB4a-4" value="&lt;font style=&quot;font-size: 24px&quot;&gt;Employer&lt;/font&gt;" style="rounded=0;whiteSpace=wrap;html=1;" parent="1" vertex="1">
          <mxGeometry x="720" y="290" width="140" height="120" as="geometry" />
        </mxCell>
        <mxCell id="SrommGHa16pYw0LAVB4a-5" value="&lt;font style=&quot;font-size: 36px&quot;&gt;Admin&lt;/font&gt;" style="rounded=0;whiteSpace=wrap;html=1;" parent="1" vertex="1">
          <mxGeometry x="275" y="600" width="140" height="120" as="geometry" />
        </mxCell>
        <mxCell id="SrommGHa16pYw0LAVB4a-6" value="&lt;font style=&quot;font-size: 18px&quot;&gt;Faculty Representative&lt;/font&gt;" style="rounded=0;whiteSpace=wrap;html=1;" parent="1" vertex="1">
          <mxGeometry x="-430" y="1000" width="140" height="120" as="geometry" />
        </mxCell>
        <mxCell id="SrommGHa16pYw0LAVB4a-7" value="&lt;font style=&quot;font-size: 20px&quot;&gt;Career Office&lt;br&gt;Coordinator&lt;/font&gt;" style="rounded=0;whiteSpace=wrap;html=1;" parent="1" vertex="1">
          <mxGeometry x="500" y="590" width="140" height="120" as="geometry" />
        </mxCell>
        <mxCell id="SrommGHa16pYw0LAVB4a-8" value="&lt;font style=&quot;font-size: 24px&quot;&gt;Academic Advisor&lt;/font&gt;" style="rounded=0;whiteSpace=wrap;html=1;" parent="1" vertex="1">
          <mxGeometry x="465" y="1290" width="145" height="120" as="geometry" />
        </mxCell>
        <mxCell id="SrommGHa16pYw0LAVB4a-27" value="&lt;font style=&quot;font-size: 36px&quot;&gt;Users&lt;/font&gt;" style="rounded=0;whiteSpace=wrap;html=1;" parent="1" vertex="1">
          <mxGeometry x="355" y="160" width="145" height="120" as="geometry" />
        </mxCell>
        <mxCell id="SrommGHa16pYw0LAVB4a-28" value="username" style="ellipse;whiteSpace=wrap;html=1;" parent="1" vertex="1">
          <mxGeometry x="355" y="110" width="60" height="30" as="geometry" />
        </mxCell>
        <mxCell id="SrommGHa16pYw0LAVB4a-29" value="password" style="ellipse;whiteSpace=wrap;html=1;" parent="1" vertex="1">
          <mxGeometry x="285" y="110" width="60" height="30" as="geometry" />
        </mxCell>
        <mxCell id="SrommGHa16pYw0LAVB4a-30" value="&lt;u&gt;ID&lt;/u&gt;" style="ellipse;whiteSpace=wrap;html=1;" parent="1" vertex="1">
          <mxGeometry x="425" y="110" width="40" height="30" as="geometry" />
        </mxCell>
        <mxCell id="SrommGHa16pYw0LAVB4a-31" value="email" style="ellipse;whiteSpace=wrap;html=1;" parent="1" vertex="1">
          <mxGeometry x="475" y="110" width="60" height="30" as="geometry" />
        </mxCell>
        <mxCell id="SrommGHa16pYw0LAVB4a-32" value="" style="endArrow=none;html=1;rounded=0;" parent="1" edge="1">
          <mxGeometry width="50" height="50" relative="1" as="geometry">
            <mxPoint x="470" y="160" as="sourcePoint" />
            <mxPoint x="495" y="140" as="targetPoint" />
          </mxGeometry>
        </mxCell>
        <mxCell id="SrommGHa16pYw0LAVB4a-33" value="" style="endArrow=none;html=1;rounded=0;" parent="1" edge="1">
          <mxGeometry width="50" height="50" relative="1" as="geometry">
            <mxPoint x="425" y="160" as="sourcePoint" />
            <mxPoint x="445" y="140" as="targetPoint" />
          </mxGeometry>
        </mxCell>
        <mxCell id="SrommGHa16pYw0LAVB4a-34" value="" style="endArrow=none;html=1;rounded=0;exitX=0.25;exitY=0;exitDx=0;exitDy=0;" parent="1" source="SrommGHa16pYw0LAVB4a-27" edge="1">
          <mxGeometry width="50" height="50" relative="1" as="geometry">
            <mxPoint x="335" y="180" as="sourcePoint" />
            <mxPoint x="395" y="140" as="targetPoint" />
          </mxGeometry>
        </mxCell>
        <mxCell id="SrommGHa16pYw0LAVB4a-35" value="" style="endArrow=none;html=1;rounded=0;exitX=0;exitY=0;exitDx=0;exitDy=0;" parent="1" source="SrommGHa16pYw0LAVB4a-27" target="SrommGHa16pYw0LAVB4a-29" edge="1">
          <mxGeometry width="50" height="50" relative="1" as="geometry">
            <mxPoint x="515" y="210" as="sourcePoint" />
            <mxPoint x="545" y="170" as="targetPoint" />
          </mxGeometry>
        </mxCell>
        <mxCell id="SrommGHa16pYw0LAVB4a-36" value="" style="endArrow=none;html=1;rounded=0;" parent="1" edge="1" source="SrommGHa16pYw0LAVB4a-3">
          <mxGeometry width="50" height="50" relative="1" as="geometry">
            <mxPoint x="90" y="300" as="sourcePoint" />
            <mxPoint x="140" y="250" as="targetPoint" />
          </mxGeometry>
        </mxCell>
        <mxCell id="SrommGHa16pYw0LAVB4a-37" value="full_name" style="ellipse;whiteSpace=wrap;html=1;" parent="1" vertex="1">
          <mxGeometry x="-115" y="230" width="70" height="30" as="geometry" />
        </mxCell>
        <mxCell id="SrommGHa16pYw0LAVB4a-39" value="first_name" style="ellipse;whiteSpace=wrap;html=1;" parent="1" vertex="1">
          <mxGeometry x="-170" y="180" width="70" height="30" as="geometry" />
        </mxCell>
        <mxCell id="SrommGHa16pYw0LAVB4a-40" value="middle_name" style="ellipse;whiteSpace=wrap;html=1;" parent="1" vertex="1">
          <mxGeometry x="-120" y="150" width="80" height="30" as="geometry" />
        </mxCell>
        <mxCell id="SrommGHa16pYw0LAVB4a-43" value="last_name" style="ellipse;whiteSpace=wrap;html=1;" parent="1" vertex="1">
          <mxGeometry x="-60" y="180" width="70" height="30" as="geometry" />
        </mxCell>
        <mxCell id="SrommGHa16pYw0LAVB4a-44" value="&lt;u&gt;ID&lt;/u&gt;" style="ellipse;whiteSpace=wrap;html=1;" parent="1" vertex="1">
          <mxGeometry x="-30" y="230" width="60" height="30" as="geometry" />
        </mxCell>
        <mxCell id="SrommGHa16pYw0LAVB4a-45" value="GIU_email" style="ellipse;whiteSpace=wrap;html=1;" parent="1" vertex="1">
          <mxGeometry x="40" y="230" width="70" height="30" as="geometry" />
        </mxCell>
        <mxCell id="SrommGHa16pYw0LAVB4a-51" value="birth_date" style="ellipse;whiteSpace=wrap;html=1;" parent="1" vertex="1">
          <mxGeometry x="120" y="230" width="60" height="30" as="geometry" />
        </mxCell>
        <mxCell id="SrommGHa16pYw0LAVB4a-53" value="semester" style="ellipse;whiteSpace=wrap;html=1;" parent="1" vertex="1">
          <mxGeometry x="-175" y="320" width="60" height="30" as="geometry" />
        </mxCell>
        <mxCell id="SrommGHa16pYw0LAVB4a-54" value="faculty" style="ellipse;whiteSpace=wrap;html=1;" parent="1" vertex="1">
          <mxGeometry x="-175" y="360" width="60" height="30" as="geometry" />
        </mxCell>
        <mxCell id="SrommGHa16pYw0LAVB4a-55" value="major" style="ellipse;whiteSpace=wrap;html=1;" parent="1" vertex="1">
          <mxGeometry x="-175" y="400" width="60" height="30" as="geometry" />
        </mxCell>
        <mxCell id="SrommGHa16pYw0LAVB4a-56" value="GPA" style="ellipse;whiteSpace=wrap;html=1;" parent="1" vertex="1">
          <mxGeometry x="-175" y="440" width="60" height="30" as="geometry" />
        </mxCell>
        <mxCell id="SrommGHa16pYw0LAVB4a-57" value="address" style="ellipse;whiteSpace=wrap;html=1;" parent="1" vertex="1">
          <mxGeometry x="-175" y="480" width="60" height="30" as="geometry" />
        </mxCell>
        <mxCell id="SrommGHa16pYw0LAVB4a-59" value="" style="endArrow=none;html=1;rounded=0;" parent="1" edge="1" source="SrommGHa16pYw0LAVB4a-3">
          <mxGeometry width="50" height="50" relative="1" as="geometry">
            <mxPoint x="40" y="300" as="sourcePoint" />
            <mxPoint x="80" y="260" as="targetPoint" />
          </mxGeometry>
        </mxCell>
        <mxCell id="SrommGHa16pYw0LAVB4a-61" value="" style="endArrow=none;html=1;rounded=0;exitX=0.25;exitY=0;exitDx=0;exitDy=0;entryX=0.5;entryY=1;entryDx=0;entryDy=0;" parent="1" source="SrommGHa16pYw0LAVB4a-3" target="SrommGHa16pYw0LAVB4a-44" edge="1">
          <mxGeometry width="50" height="50" relative="1" as="geometry">
            <mxPoint x="-40" y="310" as="sourcePoint" />
            <mxPoint y="270" as="targetPoint" />
          </mxGeometry>
        </mxCell>
        <mxCell id="SrommGHa16pYw0LAVB4a-62" value="" style="endArrow=none;html=1;rounded=0;exitX=0;exitY=0;exitDx=0;exitDy=0;entryX=0.5;entryY=1;entryDx=0;entryDy=0;" parent="1" source="SrommGHa16pYw0LAVB4a-3" target="SrommGHa16pYw0LAVB4a-37" edge="1">
          <mxGeometry width="50" height="50" relative="1" as="geometry">
            <mxPoint x="-105" y="300" as="sourcePoint" />
            <mxPoint x="-55" y="250" as="targetPoint" />
          </mxGeometry>
        </mxCell>
        <mxCell id="SrommGHa16pYw0LAVB4a-63" value="" style="endArrow=none;html=1;rounded=0;exitX=0.5;exitY=0;exitDx=0;exitDy=0;" parent="1" source="SrommGHa16pYw0LAVB4a-37" edge="1">
          <mxGeometry width="50" height="50" relative="1" as="geometry">
            <mxPoint x="-80" y="260" as="sourcePoint" />
            <mxPoint x="-30" y="210" as="targetPoint" />
          </mxGeometry>
        </mxCell>
        <mxCell id="SrommGHa16pYw0LAVB4a-64" value="" style="endArrow=none;html=1;rounded=0;exitX=0.5;exitY=0;exitDx=0;exitDy=0;entryX=0.5;entryY=1;entryDx=0;entryDy=0;" parent="1" source="SrommGHa16pYw0LAVB4a-37" target="SrommGHa16pYw0LAVB4a-40" edge="1">
          <mxGeometry width="50" height="50" relative="1" as="geometry">
            <mxPoint x="-120" y="230" as="sourcePoint" />
            <mxPoint x="-70" y="180" as="targetPoint" />
          </mxGeometry>
        </mxCell>
        <mxCell id="SrommGHa16pYw0LAVB4a-65" value="" style="endArrow=none;html=1;rounded=0;exitX=0.5;exitY=0;exitDx=0;exitDy=0;" parent="1" source="SrommGHa16pYw0LAVB4a-37" edge="1">
          <mxGeometry width="50" height="50" relative="1" as="geometry">
            <mxPoint x="-180" y="260" as="sourcePoint" />
            <mxPoint x="-130" y="210" as="targetPoint" />
          </mxGeometry>
        </mxCell>
        <mxCell id="SrommGHa16pYw0LAVB4a-68" value="mobile_number" style="ellipse;shape=doubleEllipse;margin=3;whiteSpace=wrap;html=1;align=center;fontSize=12;" parent="1" vertex="1">
          <mxGeometry x="-250" y="225" width="105" height="40" as="geometry" />
        </mxCell>
        <mxCell id="SrommGHa16pYw0LAVB4a-69" value="" style="endArrow=none;html=1;rounded=0;fontSize=12;entryX=0;entryY=0.25;entryDx=0;entryDy=0;" parent="1" source="TxsOC6oO154zUz7L_qCr-1" target="SrommGHa16pYw0LAVB4a-3" edge="1">
          <mxGeometry relative="1" as="geometry">
            <mxPoint x="-115" y="295" as="sourcePoint" />
            <mxPoint x="30" y="310" as="targetPoint" />
          </mxGeometry>
        </mxCell>
        <mxCell id="SrommGHa16pYw0LAVB4a-70" value="" style="endArrow=none;html=1;rounded=0;fontSize=12;entryX=0;entryY=0.5;entryDx=0;entryDy=0;exitX=1;exitY=0.5;exitDx=0;exitDy=0;" parent="1" source="SrommGHa16pYw0LAVB4a-53" target="SrommGHa16pYw0LAVB4a-3" edge="1">
          <mxGeometry relative="1" as="geometry">
            <mxPoint x="-105" y="305" as="sourcePoint" />
            <mxPoint x="-40" y="370" as="targetPoint" />
          </mxGeometry>
        </mxCell>
        <mxCell id="SrommGHa16pYw0LAVB4a-71" value="" style="endArrow=none;html=1;rounded=0;fontSize=12;exitX=1;exitY=0.5;exitDx=0;exitDy=0;" parent="1" source="SrommGHa16pYw0LAVB4a-54" edge="1">
          <mxGeometry relative="1" as="geometry">
            <mxPoint x="-95" y="315" as="sourcePoint" />
            <mxPoint x="-50" y="375" as="targetPoint" />
          </mxGeometry>
        </mxCell>
        <mxCell id="SrommGHa16pYw0LAVB4a-72" value="" style="endArrow=none;html=1;rounded=0;fontSize=12;exitX=1;exitY=0.5;exitDx=0;exitDy=0;" parent="1" source="SrommGHa16pYw0LAVB4a-55" edge="1">
          <mxGeometry relative="1" as="geometry">
            <mxPoint x="-85" y="325" as="sourcePoint" />
            <mxPoint x="-50" y="400" as="targetPoint" />
          </mxGeometry>
        </mxCell>
        <mxCell id="SrommGHa16pYw0LAVB4a-73" value="" style="endArrow=none;html=1;rounded=0;fontSize=12;exitX=1;exitY=0.5;exitDx=0;exitDy=0;" parent="1" source="SrommGHa16pYw0LAVB4a-56" edge="1">
          <mxGeometry relative="1" as="geometry">
            <mxPoint x="-75" y="335" as="sourcePoint" />
            <mxPoint x="-50" y="420" as="targetPoint" />
          </mxGeometry>
        </mxCell>
        <mxCell id="SrommGHa16pYw0LAVB4a-74" value="" style="endArrow=none;html=1;rounded=0;fontSize=12;exitX=1;exitY=0.5;exitDx=0;exitDy=0;entryX=0.077;entryY=0.998;entryDx=0;entryDy=0;entryPerimeter=0;" parent="1" source="SrommGHa16pYw0LAVB4a-57" target="SrommGHa16pYw0LAVB4a-3" edge="1">
          <mxGeometry relative="1" as="geometry">
            <mxPoint x="-65" y="345" as="sourcePoint" />
            <mxPoint x="-50" y="420" as="targetPoint" />
          </mxGeometry>
        </mxCell>
        <mxCell id="SrommGHa16pYw0LAVB4a-75" value="" style="endArrow=none;html=1;rounded=0;fontSize=12;entryX=-0.014;entryY=0.078;entryDx=0;entryDy=0;exitX=1;exitY=0.5;exitDx=0;exitDy=0;entryPerimeter=0;" parent="1" source="SrommGHa16pYw0LAVB4a-68" target="SrommGHa16pYw0LAVB4a-3" edge="1">
          <mxGeometry relative="1" as="geometry">
            <mxPoint x="-55" y="355" as="sourcePoint" />
            <mxPoint x="10" y="420" as="targetPoint" />
          </mxGeometry>
        </mxCell>
        <mxCell id="SrommGHa16pYw0LAVB4a-77" value="Internship" style="shape=ext;margin=3;double=1;whiteSpace=wrap;html=1;align=center;fontSize=24;" parent="1" vertex="1">
          <mxGeometry x="-50" y="620" width="140" height="60" as="geometry" />
        </mxCell>
        <mxCell id="SrommGHa16pYw0LAVB4a-83" value="" style="edgeStyle=entityRelationEdgeStyle;fontSize=12;html=1;endArrow=ERzeroToMany;startArrow=none;rounded=0;entryX=1;entryY=0.25;entryDx=0;entryDy=0;" parent="1" source="SrommGHa16pYw0LAVB4a-78" target="SrommGHa16pYw0LAVB4a-77" edge="1">
          <mxGeometry width="100" height="100" relative="1" as="geometry">
            <mxPoint x="90" y="410" as="sourcePoint" />
            <mxPoint x="190" y="310" as="targetPoint" />
          </mxGeometry>
        </mxCell>
        <mxCell id="SrommGHa16pYw0LAVB4a-78" value="&lt;font style=&quot;font-size: 18px&quot;&gt;applies_for&lt;/font&gt;" style="shape=rhombus;double=1;perimeter=rhombusPerimeter;whiteSpace=wrap;html=1;align=center;fontSize=24;" parent="1" vertex="1">
          <mxGeometry x="-40" y="500" width="130" height="80" as="geometry" />
        </mxCell>
        <mxCell id="SrommGHa16pYw0LAVB4a-84" value="" style="edgeStyle=entityRelationEdgeStyle;fontSize=12;html=1;endArrow=none;startArrow=ERmandOne;rounded=0;entryX=1;entryY=0.5;entryDx=0;entryDy=0;" parent="1" target="SrommGHa16pYw0LAVB4a-78" edge="1">
          <mxGeometry width="100" height="100" relative="1" as="geometry">
            <mxPoint x="90" y="410" as="sourcePoint" />
            <mxPoint x="90" y="700" as="targetPoint" />
          </mxGeometry>
        </mxCell>
        <mxCell id="SrommGHa16pYw0LAVB4a-85" value="&lt;font style=&quot;font-size: 12px&quot;&gt;application_status&lt;/font&gt;" style="ellipse;whiteSpace=wrap;html=1;align=center;fontSize=18;" parent="1" vertex="1">
          <mxGeometry x="-75" y="710" width="115" height="40" as="geometry" />
        </mxCell>
        <mxCell id="SrommGHa16pYw0LAVB4a-86" value="&lt;font style=&quot;font-size: 12px&quot;&gt;pending&lt;/font&gt;" style="ellipse;whiteSpace=wrap;html=1;align=center;fontSize=18;" parent="1" vertex="1">
          <mxGeometry x="-167.5" y="780" width="65" height="30" as="geometry" />
        </mxCell>
        <mxCell id="SrommGHa16pYw0LAVB4a-87" value="&lt;font style=&quot;font-size: 12px&quot;&gt;short_listed&lt;/font&gt;" style="ellipse;whiteSpace=wrap;html=1;align=center;fontSize=18;" parent="1" vertex="1">
          <mxGeometry x="-95" y="780" width="82.5" height="30" as="geometry" />
        </mxCell>
        <mxCell id="SrommGHa16pYw0LAVB4a-88" value="&lt;font style=&quot;font-size: 12px&quot;&gt;rejected&lt;/font&gt;" style="ellipse;whiteSpace=wrap;html=1;align=center;fontSize=18;" parent="1" vertex="1">
          <mxGeometry x="-8.75" y="780" width="67.5" height="30" as="geometry" />
        </mxCell>
        <mxCell id="SrommGHa16pYw0LAVB4a-89" value="&lt;font style=&quot;font-size: 12px&quot;&gt;hired&lt;/font&gt;" style="ellipse;whiteSpace=wrap;html=1;align=center;fontSize=18;" parent="1" vertex="1">
          <mxGeometry x="70" y="782.5" width="50" height="25" as="geometry" />
        </mxCell>
        <mxCell id="SrommGHa16pYw0LAVB4a-91" value="" style="endArrow=none;html=1;rounded=0;fontSize=12;exitX=0.5;exitY=0;exitDx=0;exitDy=0;entryX=0.5;entryY=1;entryDx=0;entryDy=0;" parent="1" source="SrommGHa16pYw0LAVB4a-86" target="SrommGHa16pYw0LAVB4a-85" edge="1">
          <mxGeometry relative="1" as="geometry">
            <mxPoint x="-200" y="750" as="sourcePoint" />
            <mxPoint x="-40" y="750" as="targetPoint" />
          </mxGeometry>
        </mxCell>
        <mxCell id="SrommGHa16pYw0LAVB4a-92" value="" style="endArrow=none;html=1;rounded=0;fontSize=12;exitX=0.5;exitY=0;exitDx=0;exitDy=0;entryX=0.5;entryY=1;entryDx=0;entryDy=0;" parent="1" target="SrommGHa16pYw0LAVB4a-85" edge="1">
          <mxGeometry relative="1" as="geometry">
            <mxPoint x="-60.00000000000023" y="780" as="sourcePoint" />
            <mxPoint x="24.9549999999997" y="750" as="targetPoint" />
          </mxGeometry>
        </mxCell>
        <mxCell id="SrommGHa16pYw0LAVB4a-93" value="" style="endArrow=none;html=1;rounded=0;fontSize=12;exitX=0.5;exitY=0;exitDx=0;exitDy=0;entryX=0.5;entryY=1;entryDx=0;entryDy=0;" parent="1" source="SrommGHa16pYw0LAVB4a-88" target="SrommGHa16pYw0LAVB4a-85" edge="1">
          <mxGeometry relative="1" as="geometry">
            <mxPoint x="-67.48000000000022" y="780" as="sourcePoint" />
            <mxPoint x="17.474999999999703" y="750" as="targetPoint" />
          </mxGeometry>
        </mxCell>
        <mxCell id="SrommGHa16pYw0LAVB4a-94" value="" style="endArrow=none;html=1;rounded=0;fontSize=12;exitX=0.5;exitY=1;exitDx=0;exitDy=0;entryX=0.217;entryY=1;entryDx=0;entryDy=0;entryPerimeter=0;" parent="1" source="SrommGHa16pYw0LAVB4a-85" edge="1">
          <mxGeometry relative="1" as="geometry">
            <mxPoint x="5.04999999999977" y="812.5" as="sourcePoint" />
            <mxPoint x="90.0049999999997" y="782.5" as="targetPoint" />
          </mxGeometry>
        </mxCell>
        <mxCell id="SrommGHa16pYw0LAVB4a-95" value="" style="endArrow=none;html=1;rounded=0;fontSize=12;exitX=0.5;exitY=0;exitDx=0;exitDy=0;entryX=0.217;entryY=1;entryDx=0;entryDy=0;entryPerimeter=0;" parent="1" source="SrommGHa16pYw0LAVB4a-85" edge="1">
          <mxGeometry relative="1" as="geometry">
            <mxPoint x="-60.00000000000023" y="710" as="sourcePoint" />
            <mxPoint x="24.9549999999997" y="680" as="targetPoint" />
          </mxGeometry>
        </mxCell>
        <mxCell id="Lkmf8EzCWm1hWrgWqMC2-1" value="company_name" style="ellipse;whiteSpace=wrap;html=1;" parent="1" vertex="1">
          <mxGeometry x="680" y="190" width="95" height="30" as="geometry" />
        </mxCell>
        <mxCell id="Lkmf8EzCWm1hWrgWqMC2-2" value="address" style="ellipse;whiteSpace=wrap;html=1;" parent="1" vertex="1">
          <mxGeometry x="757.5" y="230" width="65" height="30" as="geometry" />
        </mxCell>
        <mxCell id="Lkmf8EzCWm1hWrgWqMC2-3" value="phone_number" style="ellipse;whiteSpace=wrap;html=1;" parent="1" vertex="1">
          <mxGeometry x="800" y="190" width="95" height="30" as="geometry" />
        </mxCell>
        <mxCell id="Lkmf8EzCWm1hWrgWqMC2-4" value="fax_number" style="ellipse;whiteSpace=wrap;html=1;" parent="1" vertex="1">
          <mxGeometry x="860" y="230" width="95" height="30" as="geometry" />
        </mxCell>
        <mxCell id="Lkmf8EzCWm1hWrgWqMC2-5" value="email" style="ellipse;whiteSpace=wrap;html=1;" parent="1" vertex="1">
          <mxGeometry x="900" y="270" width="55" height="30" as="geometry" />
        </mxCell>
        <mxCell id="Lkmf8EzCWm1hWrgWqMC2-6" value="website" style="ellipse;whiteSpace=wrap;html=1;" parent="1" vertex="1">
          <mxGeometry x="900" y="310" width="75" height="30" as="geometry" />
        </mxCell>
        <mxCell id="Lkmf8EzCWm1hWrgWqMC2-7" value="type_of_business" style="ellipse;whiteSpace=wrap;html=1;" parent="1" vertex="1">
          <mxGeometry x="895" y="350" width="110" height="40" as="geometry" />
        </mxCell>
        <mxCell id="Lkmf8EzCWm1hWrgWqMC2-8" value="" style="endArrow=none;html=1;rounded=0;exitX=0.25;exitY=0;exitDx=0;exitDy=0;" parent="1" source="SrommGHa16pYw0LAVB4a-4" edge="1">
          <mxGeometry width="50" height="50" relative="1" as="geometry">
            <mxPoint x="680" y="270" as="sourcePoint" />
            <mxPoint x="730" y="220" as="targetPoint" />
          </mxGeometry>
        </mxCell>
        <mxCell id="Lkmf8EzCWm1hWrgWqMC2-9" value="" style="endArrow=none;html=1;rounded=0;exitX=0.5;exitY=0;exitDx=0;exitDy=0;" parent="1" source="SrommGHa16pYw0LAVB4a-4" edge="1">
          <mxGeometry width="50" height="50" relative="1" as="geometry">
            <mxPoint x="800" y="290" as="sourcePoint" />
            <mxPoint x="790" y="260" as="targetPoint" />
          </mxGeometry>
        </mxCell>
        <mxCell id="Lkmf8EzCWm1hWrgWqMC2-10" value="" style="endArrow=none;html=1;rounded=0;exitX=0.75;exitY=0;exitDx=0;exitDy=0;" parent="1" source="SrommGHa16pYw0LAVB4a-4" edge="1">
          <mxGeometry width="50" height="50" relative="1" as="geometry">
            <mxPoint x="875" y="290" as="sourcePoint" />
            <mxPoint x="850" y="220" as="targetPoint" />
          </mxGeometry>
        </mxCell>
        <mxCell id="Lkmf8EzCWm1hWrgWqMC2-11" value="" style="endArrow=none;html=1;rounded=0;exitX=1;exitY=0;exitDx=0;exitDy=0;entryX=0;entryY=1;entryDx=0;entryDy=0;" parent="1" source="SrommGHa16pYw0LAVB4a-4" target="Lkmf8EzCWm1hWrgWqMC2-4" edge="1">
          <mxGeometry width="50" height="50" relative="1" as="geometry">
            <mxPoint x="785" y="320" as="sourcePoint" />
            <mxPoint x="760" y="250" as="targetPoint" />
          </mxGeometry>
        </mxCell>
        <mxCell id="Lkmf8EzCWm1hWrgWqMC2-12" value="" style="endArrow=none;html=1;rounded=0;exitX=1;exitY=0.25;exitDx=0;exitDy=0;entryX=0;entryY=0.5;entryDx=0;entryDy=0;" parent="1" source="SrommGHa16pYw0LAVB4a-4" target="Lkmf8EzCWm1hWrgWqMC2-5" edge="1">
          <mxGeometry width="50" height="50" relative="1" as="geometry">
            <mxPoint x="795" y="330" as="sourcePoint" />
            <mxPoint x="770" y="260" as="targetPoint" />
          </mxGeometry>
        </mxCell>
        <mxCell id="Lkmf8EzCWm1hWrgWqMC2-13" value="" style="endArrow=none;html=1;rounded=0;exitX=1;exitY=0.5;exitDx=0;exitDy=0;entryX=0;entryY=0.5;entryDx=0;entryDy=0;" parent="1" source="SrommGHa16pYw0LAVB4a-4" target="Lkmf8EzCWm1hWrgWqMC2-6" edge="1">
          <mxGeometry width="50" height="50" relative="1" as="geometry">
            <mxPoint x="805" y="340" as="sourcePoint" />
            <mxPoint x="780" y="270" as="targetPoint" />
          </mxGeometry>
        </mxCell>
        <mxCell id="Lkmf8EzCWm1hWrgWqMC2-14" value="" style="endArrow=none;html=1;rounded=0;exitX=0;exitY=0.5;exitDx=0;exitDy=0;entryX=1;entryY=0.75;entryDx=0;entryDy=0;" parent="1" source="Lkmf8EzCWm1hWrgWqMC2-7" target="SrommGHa16pYw0LAVB4a-4" edge="1">
          <mxGeometry width="50" height="50" relative="1" as="geometry">
            <mxPoint x="902.5" y="430" as="sourcePoint" />
            <mxPoint x="877.5" y="360" as="targetPoint" />
          </mxGeometry>
        </mxCell>
        <mxCell id="Lkmf8EzCWm1hWrgWqMC2-15" value="&lt;font style=&quot;font-size: 18px&quot;&gt;&lt;i&gt;We can add another entity company or company type to handle type_of_business&lt;br&gt;and the other 8 related attributes&lt;br&gt;&lt;/i&gt;&lt;/font&gt;" style="text;html=1;strokeColor=none;fillColor=none;align=center;verticalAlign=middle;whiteSpace=wrap;rounded=0;" parent="1" vertex="1">
          <mxGeometry x="1120" y="240" width="190" height="240" as="geometry" />
        </mxCell>
        <mxCell id="Lkmf8EzCWm1hWrgWqMC2-16" value="" style="shape=flexArrow;endArrow=classic;startArrow=classic;html=1;rounded=0;fontSize=18;" parent="1" edge="1">
          <mxGeometry width="100" height="100" relative="1" as="geometry">
            <mxPoint x="1010" y="370" as="sourcePoint" />
            <mxPoint x="1120" y="360" as="targetPoint" />
          </mxGeometry>
        </mxCell>
        <mxCell id="Lkmf8EzCWm1hWrgWqMC2-17" value="&lt;font style=&quot;font-size: 36px&quot;&gt;Job&lt;/font&gt;" style="rounded=0;whiteSpace=wrap;html=1;" parent="1" vertex="1">
          <mxGeometry x="720" y="500" width="140" height="120" as="geometry" />
        </mxCell>
        <mxCell id="Lkmf8EzCWm1hWrgWqMC2-22" value="title" style="ellipse;whiteSpace=wrap;html=1;" parent="1" vertex="1">
          <mxGeometry x="990" y="470" width="55" height="30" as="geometry" />
        </mxCell>
        <mxCell id="Lkmf8EzCWm1hWrgWqMC2-23" value="description" style="ellipse;whiteSpace=wrap;html=1;" parent="1" vertex="1">
          <mxGeometry x="885" y="545" width="70" height="30" as="geometry" />
        </mxCell>
        <mxCell id="Lkmf8EzCWm1hWrgWqMC2-24" value="department" style="ellipse;whiteSpace=wrap;html=1;" parent="1" vertex="1">
          <mxGeometry x="800" y="690" width="70" height="30" as="geometry" />
        </mxCell>
        <mxCell id="Lkmf8EzCWm1hWrgWqMC2-25" value="start_date" style="ellipse;whiteSpace=wrap;html=1;" parent="1" vertex="1">
          <mxGeometry x="887.5" y="605" width="65" height="30" as="geometry" />
        </mxCell>
        <mxCell id="Lkmf8EzCWm1hWrgWqMC2-26" value="end_date" style="ellipse;whiteSpace=wrap;html=1;" parent="1" vertex="1">
          <mxGeometry x="780" y="650" width="60" height="30" as="geometry" />
        </mxCell>
        <mxCell id="Lkmf8EzCWm1hWrgWqMC2-27" value="duration" style="ellipse;whiteSpace=wrap;html=1;" parent="1" vertex="1">
          <mxGeometry x="850" y="440" width="55" height="30" as="geometry" />
        </mxCell>
        <mxCell id="Lkmf8EzCWm1hWrgWqMC2-28" value="application_deadline" style="ellipse;whiteSpace=wrap;html=1;" parent="1" vertex="1">
          <mxGeometry x="900" y="680" width="125" height="30" as="geometry" />
        </mxCell>
        <mxCell id="Lkmf8EzCWm1hWrgWqMC2-29" value="num_of_available_internships" style="ellipse;whiteSpace=wrap;html=1;" parent="1" vertex="1">
          <mxGeometry x="895" y="640" width="175" height="30" as="geometry" />
        </mxCell>
        <mxCell id="Lkmf8EzCWm1hWrgWqMC2-31" value="&lt;font style=&quot;font-size: 11px&quot;&gt;allowed_faculties&lt;/font&gt;" style="ellipse;shape=doubleEllipse;margin=3;whiteSpace=wrap;html=1;align=center;fontSize=18;" parent="1" vertex="1">
          <mxGeometry x="880" y="500" width="100" height="30" as="geometry" />
        </mxCell>
        <mxCell id="Lkmf8EzCWm1hWrgWqMC2-32" value="salary_range" style="ellipse;whiteSpace=wrap;html=1;" parent="1" vertex="1">
          <mxGeometry x="965" y="520" width="85" height="30" as="geometry" />
        </mxCell>
        <mxCell id="Lkmf8EzCWm1hWrgWqMC2-33" value="qualifications" style="ellipse;whiteSpace=wrap;html=1;" parent="1" vertex="1">
          <mxGeometry x="907.5" y="450" width="85" height="30" as="geometry" />
        </mxCell>
        <mxCell id="Lkmf8EzCWm1hWrgWqMC2-35" value="&lt;font style=&quot;font-size: 12px&quot;&gt;required_semester&lt;/font&gt;" style="ellipse;shape=doubleEllipse;margin=3;whiteSpace=wrap;html=1;align=center;fontSize=18;" parent="1" vertex="1">
          <mxGeometry x="850" y="720" width="125" height="40" as="geometry" />
        </mxCell>
        <mxCell id="Lkmf8EzCWm1hWrgWqMC2-37" value="location" style="ellipse;whiteSpace=wrap;html=1;" parent="1" vertex="1">
          <mxGeometry x="935" y="575" width="55" height="30" as="geometry" />
        </mxCell>
        <mxCell id="Lkmf8EzCWm1hWrgWqMC2-38" value="" style="endArrow=none;html=1;rounded=0;fontSize=12;exitX=0.75;exitY=0;exitDx=0;exitDy=0;entryX=0;entryY=1;entryDx=0;entryDy=0;" parent="1" source="Lkmf8EzCWm1hWrgWqMC2-17" target="Lkmf8EzCWm1hWrgWqMC2-27" edge="1">
          <mxGeometry relative="1" as="geometry">
            <mxPoint x="740" y="640" as="sourcePoint" />
            <mxPoint x="900" y="640" as="targetPoint" />
          </mxGeometry>
        </mxCell>
        <mxCell id="Lkmf8EzCWm1hWrgWqMC2-39" value="" style="endArrow=none;html=1;rounded=0;fontSize=12;entryX=0;entryY=1;entryDx=0;entryDy=0;exitX=0.75;exitY=0;exitDx=0;exitDy=0;" parent="1" source="Lkmf8EzCWm1hWrgWqMC2-17" target="Lkmf8EzCWm1hWrgWqMC2-33" edge="1">
          <mxGeometry relative="1" as="geometry">
            <mxPoint x="860" y="500" as="sourcePoint" />
            <mxPoint x="868.0545635173703" y="475.6066017177982" as="targetPoint" />
          </mxGeometry>
        </mxCell>
        <mxCell id="Lkmf8EzCWm1hWrgWqMC2-40" value="" style="endArrow=none;html=1;rounded=0;fontSize=12;exitX=1;exitY=0;exitDx=0;exitDy=0;entryX=0;entryY=0.5;entryDx=0;entryDy=0;" parent="1" source="Lkmf8EzCWm1hWrgWqMC2-17" target="Lkmf8EzCWm1hWrgWqMC2-22" edge="1">
          <mxGeometry relative="1" as="geometry">
            <mxPoint x="845" y="520.0000000000001" as="sourcePoint" />
            <mxPoint x="878.0545635173703" y="485.6066017177982" as="targetPoint" />
          </mxGeometry>
        </mxCell>
        <mxCell id="Lkmf8EzCWm1hWrgWqMC2-41" value="" style="endArrow=none;html=1;rounded=0;fontSize=12;entryX=0;entryY=0.5;entryDx=0;entryDy=0;" parent="1" target="Lkmf8EzCWm1hWrgWqMC2-31" edge="1">
          <mxGeometry relative="1" as="geometry">
            <mxPoint x="860" y="520" as="sourcePoint" />
            <mxPoint x="888.0545635173703" y="495.6066017177982" as="targetPoint" />
          </mxGeometry>
        </mxCell>
        <mxCell id="Lkmf8EzCWm1hWrgWqMC2-42" value="" style="endArrow=none;html=1;rounded=0;fontSize=12;exitX=0.998;exitY=0.358;exitDx=0;exitDy=0;entryX=0;entryY=0.5;entryDx=0;entryDy=0;exitPerimeter=0;" parent="1" source="Lkmf8EzCWm1hWrgWqMC2-17" target="Lkmf8EzCWm1hWrgWqMC2-32" edge="1">
          <mxGeometry relative="1" as="geometry">
            <mxPoint x="865" y="540.0000000000001" as="sourcePoint" />
            <mxPoint x="898.0545635173703" y="505.6066017177982" as="targetPoint" />
          </mxGeometry>
        </mxCell>
        <mxCell id="Lkmf8EzCWm1hWrgWqMC2-43" value="" style="endArrow=none;html=1;rounded=0;fontSize=12;exitX=1;exitY=0.5;exitDx=0;exitDy=0;entryX=0;entryY=0.5;entryDx=0;entryDy=0;" parent="1" source="Lkmf8EzCWm1hWrgWqMC2-17" target="Lkmf8EzCWm1hWrgWqMC2-23" edge="1">
          <mxGeometry relative="1" as="geometry">
            <mxPoint x="860" y="590.0000000000001" as="sourcePoint" />
            <mxPoint x="893.0545635173703" y="555.6066017177982" as="targetPoint" />
          </mxGeometry>
        </mxCell>
        <mxCell id="Lkmf8EzCWm1hWrgWqMC2-44" value="" style="endArrow=none;html=1;rounded=0;fontSize=12;exitX=1;exitY=0.75;exitDx=0;exitDy=0;entryX=0;entryY=0.5;entryDx=0;entryDy=0;" parent="1" source="Lkmf8EzCWm1hWrgWqMC2-17" target="Lkmf8EzCWm1hWrgWqMC2-37" edge="1">
          <mxGeometry relative="1" as="geometry">
            <mxPoint x="860" y="614.3900000000001" as="sourcePoint" />
            <mxPoint x="893.0545635173703" y="579.9966017177982" as="targetPoint" />
          </mxGeometry>
        </mxCell>
        <mxCell id="Lkmf8EzCWm1hWrgWqMC2-45" value="" style="endArrow=none;html=1;rounded=0;fontSize=12;entryX=0;entryY=0.5;entryDx=0;entryDy=0;exitX=1.007;exitY=0.925;exitDx=0;exitDy=0;exitPerimeter=0;" parent="1" source="Lkmf8EzCWm1hWrgWqMC2-17" target="Lkmf8EzCWm1hWrgWqMC2-25" edge="1">
          <mxGeometry relative="1" as="geometry">
            <mxPoint x="870" y="590" as="sourcePoint" />
            <mxPoint x="893.0545635173703" y="585.6066017177982" as="targetPoint" />
          </mxGeometry>
        </mxCell>
        <mxCell id="Lkmf8EzCWm1hWrgWqMC2-46" value="" style="endArrow=none;html=1;rounded=0;fontSize=12;exitX=0;exitY=0.5;exitDx=0;exitDy=0;entryX=0;entryY=1;entryDx=0;entryDy=0;" parent="1" source="Lkmf8EzCWm1hWrgWqMC2-29" edge="1">
          <mxGeometry relative="1" as="geometry">
            <mxPoint x="818.47" y="654.3900000000001" as="sourcePoint" />
            <mxPoint x="851.5245635173703" y="619.9966017177982" as="targetPoint" />
          </mxGeometry>
        </mxCell>
        <mxCell id="Lkmf8EzCWm1hWrgWqMC2-48" value="" style="endArrow=none;html=1;rounded=0;fontSize=12;exitX=0;exitY=0.5;exitDx=0;exitDy=0;entryX=0;entryY=1;entryDx=0;entryDy=0;" parent="1" source="Lkmf8EzCWm1hWrgWqMC2-28" edge="1">
          <mxGeometry relative="1" as="geometry">
            <mxPoint x="810" y="654.3900000000001" as="sourcePoint" />
            <mxPoint x="843.0545635173703" y="619.9966017177982" as="targetPoint" />
          </mxGeometry>
        </mxCell>
        <mxCell id="Lkmf8EzCWm1hWrgWqMC2-49" value="" style="endArrow=none;html=1;rounded=0;fontSize=12;exitX=0.264;exitY=0.058;exitDx=0;exitDy=0;entryX=0;entryY=1;entryDx=0;entryDy=0;exitPerimeter=0;" parent="1" source="Lkmf8EzCWm1hWrgWqMC2-35" edge="1">
          <mxGeometry relative="1" as="geometry">
            <mxPoint x="803.47" y="654.3900000000001" as="sourcePoint" />
            <mxPoint x="836.5245635173703" y="619.9966017177982" as="targetPoint" />
          </mxGeometry>
        </mxCell>
        <mxCell id="Lkmf8EzCWm1hWrgWqMC2-52" value="" style="endArrow=none;html=1;rounded=0;fontSize=12;exitX=0.5;exitY=0;exitDx=0;exitDy=0;entryX=0;entryY=1;entryDx=0;entryDy=0;" parent="1" source="Lkmf8EzCWm1hWrgWqMC2-26" edge="1">
          <mxGeometry relative="1" as="geometry">
            <mxPoint x="789.45" y="654.3900000000003" as="sourcePoint" />
            <mxPoint x="822.5045635173703" y="619.9966017177983" as="targetPoint" />
          </mxGeometry>
        </mxCell>
        <mxCell id="Lkmf8EzCWm1hWrgWqMC2-53" value="" style="endArrow=none;html=1;rounded=0;fontSize=12;exitX=1;exitY=0;exitDx=0;exitDy=0;entryX=0.75;entryY=1;entryDx=0;entryDy=0;" parent="1" source="Lkmf8EzCWm1hWrgWqMC2-24" target="Lkmf8EzCWm1hWrgWqMC2-17" edge="1">
          <mxGeometry relative="1" as="geometry">
            <mxPoint x="1130" y="702.2000000000003" as="sourcePoint" />
            <mxPoint x="820" y="620" as="targetPoint" />
          </mxGeometry>
        </mxCell>
        <mxCell id="Lkmf8EzCWm1hWrgWqMC2-55" value="remote" style="ellipse;whiteSpace=wrap;html=1;" parent="1" vertex="1">
          <mxGeometry x="1025" y="550" width="55" height="30" as="geometry" />
        </mxCell>
        <mxCell id="Lkmf8EzCWm1hWrgWqMC2-56" value="hybrid" style="ellipse;whiteSpace=wrap;html=1;" parent="1" vertex="1">
          <mxGeometry x="1090" y="575" width="55" height="30" as="geometry" />
        </mxCell>
        <mxCell id="Lkmf8EzCWm1hWrgWqMC2-57" value="in_office" style="ellipse;whiteSpace=wrap;html=1;" parent="1" vertex="1">
          <mxGeometry x="1060" y="610" width="55" height="30" as="geometry" />
        </mxCell>
        <mxCell id="Lkmf8EzCWm1hWrgWqMC2-58" value="" style="endArrow=none;html=1;rounded=0;fontSize=12;exitX=1;exitY=0.5;exitDx=0;exitDy=0;entryX=0;entryY=1;entryDx=0;entryDy=0;" parent="1" source="Lkmf8EzCWm1hWrgWqMC2-37" target="Lkmf8EzCWm1hWrgWqMC2-55" edge="1">
          <mxGeometry relative="1" as="geometry">
            <mxPoint x="950" y="575" as="sourcePoint" />
            <mxPoint x="1025" y="575" as="targetPoint" />
          </mxGeometry>
        </mxCell>
        <mxCell id="Lkmf8EzCWm1hWrgWqMC2-59" value="" style="endArrow=none;html=1;rounded=0;fontSize=12;exitX=1;exitY=0.5;exitDx=0;exitDy=0;entryX=0;entryY=0.5;entryDx=0;entryDy=0;" parent="1" source="Lkmf8EzCWm1hWrgWqMC2-37" edge="1">
          <mxGeometry relative="1" as="geometry">
            <mxPoint x="1015" y="590" as="sourcePoint" />
            <mxPoint x="1090" y="590" as="targetPoint" />
          </mxGeometry>
        </mxCell>
        <mxCell id="Lkmf8EzCWm1hWrgWqMC2-60" value="" style="endArrow=none;html=1;rounded=0;fontSize=12;exitX=1;exitY=0.5;exitDx=0;exitDy=0;entryX=0;entryY=0.5;entryDx=0;entryDy=0;" parent="1" source="Lkmf8EzCWm1hWrgWqMC2-37" target="Lkmf8EzCWm1hWrgWqMC2-57" edge="1">
          <mxGeometry relative="1" as="geometry">
            <mxPoint x="890" y="620" as="sourcePoint" />
            <mxPoint x="965" y="620" as="targetPoint" />
          </mxGeometry>
        </mxCell>
        <mxCell id="bsv-OzgBtJs6Rzj88o-v-1" value="Progress_report" style="shape=ext;margin=3;double=1;whiteSpace=wrap;html=1;align=center;fontSize=24;" parent="1" vertex="1">
          <mxGeometry x="-410" y="650" width="200" height="60" as="geometry" />
        </mxCell>
        <mxCell id="bsv-OzgBtJs6Rzj88o-v-3" value="state" style="ellipse;whiteSpace=wrap;html=1;align=center;" parent="1" vertex="1">
          <mxGeometry x="-460" y="580" width="60" height="30" as="geometry" />
        </mxCell>
        <mxCell id="bsv-OzgBtJs6Rzj88o-v-4" value="description" style="ellipse;whiteSpace=wrap;html=1;align=center;" parent="1" vertex="1">
          <mxGeometry x="-390" y="570" width="80" height="30" as="geometry" />
        </mxCell>
        <mxCell id="bsv-OzgBtJs6Rzj88o-v-5" value="date" style="ellipse;whiteSpace=wrap;html=1;align=center;" parent="1" vertex="1">
          <mxGeometry x="-510" y="670" width="50" height="30" as="geometry" />
        </mxCell>
        <mxCell id="bsv-OzgBtJs6Rzj88o-v-6" value="evaluation" style="ellipse;whiteSpace=wrap;html=1;align=center;" parent="1" vertex="1">
          <mxGeometry x="-520" y="620" width="70" height="30" as="geometry" />
        </mxCell>
        <mxCell id="bsv-OzgBtJs6Rzj88o-v-8" value="" style="endArrow=none;html=1;rounded=0;fontSize=12;exitX=0.25;exitY=0;exitDx=0;exitDy=0;entryX=0.5;entryY=1;entryDx=0;entryDy=0;" parent="1" source="bsv-OzgBtJs6Rzj88o-v-1" target="bsv-OzgBtJs6Rzj88o-v-4" edge="1">
          <mxGeometry relative="1" as="geometry">
            <mxPoint x="-310" y="630" as="sourcePoint" />
            <mxPoint x="-267.5450000000001" y="600" as="targetPoint" />
          </mxGeometry>
        </mxCell>
        <mxCell id="bsv-OzgBtJs6Rzj88o-v-9" value="" style="endArrow=none;html=1;rounded=0;fontSize=12;exitX=0.1;exitY=0;exitDx=0;exitDy=0;entryX=0.62;entryY=1.033;entryDx=0;entryDy=0;entryPerimeter=0;exitPerimeter=0;" parent="1" source="bsv-OzgBtJs6Rzj88o-v-1" target="bsv-OzgBtJs6Rzj88o-v-3" edge="1">
          <mxGeometry relative="1" as="geometry">
            <mxPoint x="-300" y="640" as="sourcePoint" />
            <mxPoint x="-257.5450000000001" y="610" as="targetPoint" />
          </mxGeometry>
        </mxCell>
        <mxCell id="bsv-OzgBtJs6Rzj88o-v-10" value="" style="endArrow=none;html=1;rounded=0;fontSize=12;exitX=0;exitY=0.37;exitDx=0;exitDy=0;entryX=1;entryY=1;entryDx=0;entryDy=0;exitPerimeter=0;" parent="1" source="bsv-OzgBtJs6Rzj88o-v-1" target="bsv-OzgBtJs6Rzj88o-v-6" edge="1">
          <mxGeometry relative="1" as="geometry">
            <mxPoint x="-290" y="650" as="sourcePoint" />
            <mxPoint x="-247.54500000000007" y="620" as="targetPoint" />
          </mxGeometry>
        </mxCell>
        <mxCell id="bsv-OzgBtJs6Rzj88o-v-11" value="" style="endArrow=none;html=1;rounded=0;fontSize=12;entryX=1;entryY=0.5;entryDx=0;entryDy=0;exitX=0;exitY=0.5;exitDx=0;exitDy=0;" parent="1" source="bsv-OzgBtJs6Rzj88o-v-1" target="bsv-OzgBtJs6Rzj88o-v-5" edge="1">
          <mxGeometry relative="1" as="geometry">
            <mxPoint x="-380" y="660" as="sourcePoint" />
            <mxPoint x="-237.54500000000007" y="630" as="targetPoint" />
          </mxGeometry>
        </mxCell>
        <mxCell id="bsv-OzgBtJs6Rzj88o-v-12" value="&lt;font style=&quot;font-size: 24px&quot;&gt;fills_in&lt;/font&gt;" style="shape=rhombus;double=1;perimeter=rhombusPerimeter;whiteSpace=wrap;html=1;align=center;" parent="1" vertex="1">
          <mxGeometry x="-205" y="535" width="120" height="60" as="geometry" />
        </mxCell>
        <mxCell id="bsv-OzgBtJs6Rzj88o-v-16" value="" style="edgeStyle=entityRelationEdgeStyle;fontSize=12;html=1;endArrow=none;startArrow=ERmandOne;rounded=0;entryX=1;entryY=0.5;entryDx=0;entryDy=0;exitX=0.431;exitY=1.018;exitDx=0;exitDy=0;exitPerimeter=0;" parent="1" source="SrommGHa16pYw0LAVB4a-3" target="bsv-OzgBtJs6Rzj88o-v-12" edge="1">
          <mxGeometry width="100" height="100" relative="1" as="geometry">
            <mxPoint x="-15" y="420" as="sourcePoint" />
            <mxPoint x="-210" y="680" as="targetPoint" />
          </mxGeometry>
        </mxCell>
        <mxCell id="bsv-OzgBtJs6Rzj88o-v-17" value="" style="edgeStyle=entityRelationEdgeStyle;fontSize=12;html=1;endArrow=ERzeroToMany;startArrow=none;rounded=0;exitX=0;exitY=0.5;exitDx=0;exitDy=0;" parent="1" source="bsv-OzgBtJs6Rzj88o-v-12" target="bsv-OzgBtJs6Rzj88o-v-1" edge="1">
          <mxGeometry width="100" height="100" relative="1" as="geometry">
            <mxPoint x="-200" y="630" as="sourcePoint" />
            <mxPoint x="-220" y="680" as="targetPoint" />
          </mxGeometry>
        </mxCell>
        <mxCell id="bsv-OzgBtJs6Rzj88o-v-18" value="&lt;font style=&quot;font-size: 18px&quot;&gt;Contact_Person&lt;/font&gt;" style="rounded=0;whiteSpace=wrap;html=1;" parent="1" vertex="1">
          <mxGeometry x="240" y="360" width="140" height="90" as="geometry" />
        </mxCell>
        <mxCell id="bsv-OzgBtJs6Rzj88o-v-20" value="name" style="ellipse;whiteSpace=wrap;html=1;" parent="1" vertex="1">
          <mxGeometry x="180" y="460" width="60" height="30" as="geometry" />
        </mxCell>
        <mxCell id="bsv-OzgBtJs6Rzj88o-v-21" value="job_title" style="ellipse;whiteSpace=wrap;html=1;" parent="1" vertex="1">
          <mxGeometry x="205" y="490" width="60" height="30" as="geometry" />
        </mxCell>
        <mxCell id="bsv-OzgBtJs6Rzj88o-v-22" value="email" style="ellipse;whiteSpace=wrap;html=1;" parent="1" vertex="1">
          <mxGeometry x="250" y="460" width="60" height="30" as="geometry" />
        </mxCell>
        <mxCell id="bsv-OzgBtJs6Rzj88o-v-23" value="fax" style="ellipse;whiteSpace=wrap;html=1;" parent="1" vertex="1">
          <mxGeometry x="292.5" y="500" width="35" height="30" as="geometry" />
        </mxCell>
        <mxCell id="bsv-OzgBtJs6Rzj88o-v-25" value="" style="endArrow=none;html=1;rounded=0;exitX=0.5;exitY=0;exitDx=0;exitDy=0;entryX=0;entryY=0.75;entryDx=0;entryDy=0;" parent="1" source="bsv-OzgBtJs6Rzj88o-v-20" target="bsv-OzgBtJs6Rzj88o-v-18" edge="1">
          <mxGeometry width="50" height="50" relative="1" as="geometry">
            <mxPoint x="190" y="470" as="sourcePoint" />
            <mxPoint x="240" y="420" as="targetPoint" />
          </mxGeometry>
        </mxCell>
        <mxCell id="bsv-OzgBtJs6Rzj88o-v-26" value="" style="endArrow=none;html=1;rounded=0;exitX=0.594;exitY=-0.005;exitDx=0;exitDy=0;exitPerimeter=0;" parent="1" source="bsv-OzgBtJs6Rzj88o-v-21" edge="1">
          <mxGeometry width="50" height="50" relative="1" as="geometry">
            <mxPoint x="235" y="482.5" as="sourcePoint" />
            <mxPoint x="255" y="450" as="targetPoint" />
          </mxGeometry>
        </mxCell>
        <mxCell id="bsv-OzgBtJs6Rzj88o-v-27" value="" style="endArrow=none;html=1;rounded=0;exitX=0.5;exitY=0;exitDx=0;exitDy=0;entryX=0.25;entryY=1;entryDx=0;entryDy=0;" parent="1" source="bsv-OzgBtJs6Rzj88o-v-22" target="bsv-OzgBtJs6Rzj88o-v-18" edge="1">
          <mxGeometry width="50" height="50" relative="1" as="geometry">
            <mxPoint x="230" y="480" as="sourcePoint" />
            <mxPoint x="260" y="447.5" as="targetPoint" />
          </mxGeometry>
        </mxCell>
        <mxCell id="bsv-OzgBtJs6Rzj88o-v-28" value="" style="endArrow=none;html=1;rounded=0;exitX=0.5;exitY=0;exitDx=0;exitDy=0;" parent="1" source="bsv-OzgBtJs6Rzj88o-v-23" edge="1">
          <mxGeometry width="50" height="50" relative="1" as="geometry">
            <mxPoint x="297.5" y="482.5" as="sourcePoint" />
            <mxPoint x="315" y="450" as="targetPoint" />
          </mxGeometry>
        </mxCell>
        <mxCell id="bsv-OzgBtJs6Rzj88o-v-30" value="&lt;font style=&quot;font-size: 11px&quot;&gt;mobile_num&lt;/font&gt;" style="ellipse;shape=doubleEllipse;margin=3;whiteSpace=wrap;html=1;align=center;fontSize=18;" parent="1" vertex="1">
          <mxGeometry x="315" y="470" width="72.5" height="30" as="geometry" />
        </mxCell>
        <mxCell id="bsv-OzgBtJs6Rzj88o-v-32" value="" style="endArrow=none;html=1;rounded=0;exitX=0.5;exitY=0;exitDx=0;exitDy=0;entryX=0.75;entryY=1;entryDx=0;entryDy=0;" parent="1" source="bsv-OzgBtJs6Rzj88o-v-30" target="bsv-OzgBtJs6Rzj88o-v-18" edge="1">
          <mxGeometry width="50" height="50" relative="1" as="geometry">
            <mxPoint x="320" y="510.0000000000001" as="sourcePoint" />
            <mxPoint x="325" y="460.0000000000001" as="targetPoint" />
          </mxGeometry>
        </mxCell>
        <mxCell id="TxsOC6oO154zUz7L_qCr-1" value="age" style="ellipse;whiteSpace=wrap;html=1;align=center;dashed=1;" vertex="1" parent="1">
          <mxGeometry x="-175" y="280" width="67.5" height="30" as="geometry" />
        </mxCell>
        <mxCell id="TxsOC6oO154zUz7L_qCr-2" value="ID" style="ellipse;whiteSpace=wrap;html=1;align=center;fontStyle=4;" vertex="1" parent="1">
          <mxGeometry x="710" y="1440" width="100" height="40" as="geometry" />
        </mxCell>
        <mxCell id="TxsOC6oO154zUz7L_qCr-3" value="email" style="ellipse;whiteSpace=wrap;html=1;align=center;" vertex="1" parent="1">
          <mxGeometry x="580" y="1470" width="100" height="40" as="geometry" />
        </mxCell>
        <mxCell id="TxsOC6oO154zUz7L_qCr-4" value="faculty" style="ellipse;whiteSpace=wrap;html=1;align=center;" vertex="1" parent="1">
          <mxGeometry x="415" y="1470" width="100" height="40" as="geometry" />
        </mxCell>
        <mxCell id="TxsOC6oO154zUz7L_qCr-5" value="monitors" style="shape=rhombus;perimeter=rhombusPerimeter;whiteSpace=wrap;html=1;align=center;" vertex="1" parent="1">
          <mxGeometry x="190" y="1080" width="120" height="60" as="geometry" />
        </mxCell>
        <mxCell id="TxsOC6oO154zUz7L_qCr-6" value="" style="endArrow=none;html=1;rounded=0;" edge="1" parent="1" source="SrommGHa16pYw0LAVB4a-8" target="TxsOC6oO154zUz7L_qCr-2">
          <mxGeometry relative="1" as="geometry">
            <mxPoint x="770" y="1200" as="sourcePoint" />
            <mxPoint x="930" y="1200" as="targetPoint" />
          </mxGeometry>
        </mxCell>
        <mxCell id="TxsOC6oO154zUz7L_qCr-8" value="" style="endArrow=none;html=1;rounded=0;" edge="1" parent="1" source="SrommGHa16pYw0LAVB4a-8" target="TxsOC6oO154zUz7L_qCr-3">
          <mxGeometry relative="1" as="geometry">
            <mxPoint x="535" y="1267.8171742868772" as="sourcePoint" />
            <mxPoint x="709.203165628317" y="1200.0033041875358" as="targetPoint" />
          </mxGeometry>
        </mxCell>
        <mxCell id="TxsOC6oO154zUz7L_qCr-9" value="" style="endArrow=none;html=1;rounded=0;" edge="1" parent="1" source="SrommGHa16pYw0LAVB4a-8" target="TxsOC6oO154zUz7L_qCr-4">
          <mxGeometry relative="1" as="geometry">
            <mxPoint x="660" y="1301.7771742868772" as="sourcePoint" />
            <mxPoint x="834.203165628317" y="1233.9633041875359" as="targetPoint" />
          </mxGeometry>
        </mxCell>
        <mxCell id="TxsOC6oO154zUz7L_qCr-10" value="" style="endArrow=none;html=1;rounded=0;" edge="1" parent="1" source="TxsOC6oO154zUz7L_qCr-5" target="SrommGHa16pYw0LAVB4a-8">
          <mxGeometry relative="1" as="geometry">
            <mxPoint x="670" y="1311.7771742868772" as="sourcePoint" />
            <mxPoint x="844.203165628317" y="1243.9633041875359" as="targetPoint" />
          </mxGeometry>
        </mxCell>
        <mxCell id="TxsOC6oO154zUz7L_qCr-11" value="name" style="ellipse;whiteSpace=wrap;html=1;align=center;" vertex="1" parent="1">
          <mxGeometry x="295" y="1440" width="100" height="40" as="geometry" />
        </mxCell>
        <mxCell id="TxsOC6oO154zUz7L_qCr-12" value="" style="endArrow=none;html=1;rounded=0;" edge="1" parent="1" source="TxsOC6oO154zUz7L_qCr-11" target="SrommGHa16pYw0LAVB4a-8">
          <mxGeometry relative="1" as="geometry">
            <mxPoint x="770" y="1200" as="sourcePoint" />
            <mxPoint x="930" y="1200" as="targetPoint" />
          </mxGeometry>
        </mxCell>
        <mxCell id="TxsOC6oO154zUz7L_qCr-13" value="" style="edgeStyle=entityRelationEdgeStyle;fontSize=12;html=1;endArrow=ERzeroToMany;startArrow=ERmandOne;rounded=0;" edge="1" parent="1" source="TxsOC6oO154zUz7L_qCr-5" target="SrommGHa16pYw0LAVB4a-3">
          <mxGeometry width="100" height="100" relative="1" as="geometry">
            <mxPoint x="200" y="850" as="sourcePoint" />
            <mxPoint x="300" y="750" as="targetPoint" />
          </mxGeometry>
        </mxCell>
        <mxCell id="TxsOC6oO154zUz7L_qCr-14" value="" style="endArrow=none;html=1;rounded=0;" edge="1" parent="1" source="SrommGHa16pYw0LAVB4a-6" target="TxsOC6oO154zUz7L_qCr-15">
          <mxGeometry relative="1" as="geometry">
            <mxPoint x="-630" y="1070" as="sourcePoint" />
            <mxPoint x="-470" y="1070" as="targetPoint" />
          </mxGeometry>
        </mxCell>
        <mxCell id="TxsOC6oO154zUz7L_qCr-15" value="ID" style="ellipse;whiteSpace=wrap;html=1;align=center;fontStyle=4;" vertex="1" parent="1">
          <mxGeometry x="-610" y="1110" width="100" height="40" as="geometry" />
        </mxCell>
        <mxCell id="TxsOC6oO154zUz7L_qCr-16" value="name" style="ellipse;whiteSpace=wrap;html=1;align=center;" vertex="1" parent="1">
          <mxGeometry x="-300" y="1200" width="100" height="40" as="geometry" />
        </mxCell>
        <mxCell id="TxsOC6oO154zUz7L_qCr-17" value="email" style="ellipse;whiteSpace=wrap;html=1;align=center;" vertex="1" parent="1">
          <mxGeometry x="-560" y="1180" width="100" height="40" as="geometry" />
        </mxCell>
        <mxCell id="TxsOC6oO154zUz7L_qCr-18" value="faculty" style="ellipse;whiteSpace=wrap;html=1;align=center;" vertex="1" parent="1">
          <mxGeometry x="-430" y="1190" width="100" height="40" as="geometry" />
        </mxCell>
        <mxCell id="TxsOC6oO154zUz7L_qCr-19" value="" style="endArrow=none;html=1;rounded=0;" edge="1" parent="1" source="TxsOC6oO154zUz7L_qCr-17" target="SrommGHa16pYw0LAVB4a-6">
          <mxGeometry relative="1" as="geometry">
            <mxPoint x="170" y="1070" as="sourcePoint" />
            <mxPoint x="330" y="1070" as="targetPoint" />
          </mxGeometry>
        </mxCell>
        <mxCell id="TxsOC6oO154zUz7L_qCr-20" value="" style="endArrow=none;html=1;rounded=0;" edge="1" parent="1" source="TxsOC6oO154zUz7L_qCr-18" target="SrommGHa16pYw0LAVB4a-6">
          <mxGeometry relative="1" as="geometry">
            <mxPoint x="-620" y="1080" as="sourcePoint" />
            <mxPoint x="-460" y="1080" as="targetPoint" />
          </mxGeometry>
        </mxCell>
        <mxCell id="TxsOC6oO154zUz7L_qCr-21" value="" style="endArrow=none;html=1;rounded=0;" edge="1" parent="1" source="TxsOC6oO154zUz7L_qCr-16" target="SrommGHa16pYw0LAVB4a-6">
          <mxGeometry relative="1" as="geometry">
            <mxPoint x="-610" y="1090" as="sourcePoint" />
            <mxPoint x="-450" y="1090" as="targetPoint" />
          </mxGeometry>
        </mxCell>
        <mxCell id="TxsOC6oO154zUz7L_qCr-22" value="Reviews" style="shape=rhombus;double=1;perimeter=rhombusPerimeter;whiteSpace=wrap;html=1;align=center;" vertex="1" parent="1">
          <mxGeometry x="-195" y="1060" width="120" height="60" as="geometry" />
        </mxCell>
        <mxCell id="TxsOC6oO154zUz7L_qCr-23" value="" style="endArrow=none;html=1;rounded=0;" edge="1" parent="1" source="SrommGHa16pYw0LAVB4a-6" target="TxsOC6oO154zUz7L_qCr-22">
          <mxGeometry relative="1" as="geometry">
            <mxPoint x="-290" y="1040" as="sourcePoint" />
            <mxPoint x="-130" y="1040" as="targetPoint" />
          </mxGeometry>
        </mxCell>
        <mxCell id="TxsOC6oO154zUz7L_qCr-24" value="type" style="ellipse;whiteSpace=wrap;html=1;align=center;" vertex="1" parent="1">
          <mxGeometry x="690" y="670" width="100" height="40" as="geometry" />
        </mxCell>
        <mxCell id="TxsOC6oO154zUz7L_qCr-25" value="" style="endArrow=none;html=1;rounded=0;" edge="1" parent="1" source="TxsOC6oO154zUz7L_qCr-24" target="Lkmf8EzCWm1hWrgWqMC2-17">
          <mxGeometry relative="1" as="geometry">
            <mxPoint x="170" y="670" as="sourcePoint" />
            <mxPoint x="330" y="670" as="targetPoint" />
          </mxGeometry>
        </mxCell>
        <mxCell id="TxsOC6oO154zUz7L_qCr-26" value="" style="endArrow=none;html=1;rounded=0;" edge="1" parent="1" source="TxsOC6oO154zUz7L_qCr-28" target="TxsOC6oO154zUz7L_qCr-24">
          <mxGeometry relative="1" as="geometry">
            <mxPoint x="680" y="760" as="sourcePoint" />
            <mxPoint x="330" y="670" as="targetPoint" />
          </mxGeometry>
        </mxCell>
        <mxCell id="TxsOC6oO154zUz7L_qCr-28" value="full_time" style="ellipse;whiteSpace=wrap;html=1;align=center;" vertex="1" parent="1">
          <mxGeometry x="630" y="775" width="100" height="40" as="geometry" />
        </mxCell>
        <mxCell id="TxsOC6oO154zUz7L_qCr-30" value="part_time" style="ellipse;whiteSpace=wrap;html=1;align=center;" vertex="1" parent="1">
          <mxGeometry x="785" y="770" width="100" height="40" as="geometry" />
        </mxCell>
        <mxCell id="TxsOC6oO154zUz7L_qCr-31" value="project_based" style="ellipse;whiteSpace=wrap;html=1;align=center;" vertex="1" parent="1">
          <mxGeometry x="677.5" y="865" width="100" height="40" as="geometry" />
        </mxCell>
        <mxCell id="TxsOC6oO154zUz7L_qCr-32" value="freelance" style="ellipse;whiteSpace=wrap;html=1;align=center;" vertex="1" parent="1">
          <mxGeometry x="540" y="800" width="100" height="40" as="geometry" />
        </mxCell>
        <mxCell id="TxsOC6oO154zUz7L_qCr-33" value="summer_internship" style="ellipse;whiteSpace=wrap;html=1;align=center;" vertex="1" parent="1">
          <mxGeometry x="520" y="742.5" width="120" height="40" as="geometry" />
        </mxCell>
        <mxCell id="TxsOC6oO154zUz7L_qCr-34" value="industrial_internship" style="ellipse;whiteSpace=wrap;html=1;align=center;" vertex="1" parent="1">
          <mxGeometry x="740" y="815" width="120" height="50" as="geometry" />
        </mxCell>
        <mxCell id="TxsOC6oO154zUz7L_qCr-35" value="" style="endArrow=none;html=1;rounded=0;" edge="1" parent="1" source="TxsOC6oO154zUz7L_qCr-30" target="TxsOC6oO154zUz7L_qCr-36">
          <mxGeometry relative="1" as="geometry">
            <mxPoint x="480" y="1030" as="sourcePoint" />
            <mxPoint x="640" y="1030" as="targetPoint" />
          </mxGeometry>
        </mxCell>
        <mxCell id="TxsOC6oO154zUz7L_qCr-36" value="work_days" style="ellipse;whiteSpace=wrap;html=1;align=center;" vertex="1" parent="1">
          <mxGeometry x="870" y="840" width="100" height="40" as="geometry" />
        </mxCell>
        <mxCell id="TxsOC6oO154zUz7L_qCr-38" value="" style="endArrow=none;html=1;rounded=0;" edge="1" parent="1" source="TxsOC6oO154zUz7L_qCr-34" target="TxsOC6oO154zUz7L_qCr-24">
          <mxGeometry width="50" height="50" relative="1" as="geometry">
            <mxPoint x="415" y="950" as="sourcePoint" />
            <mxPoint x="465" y="900" as="targetPoint" />
          </mxGeometry>
        </mxCell>
        <mxCell id="TxsOC6oO154zUz7L_qCr-39" value="" style="endArrow=none;html=1;rounded=0;" edge="1" parent="1" source="TxsOC6oO154zUz7L_qCr-31" target="TxsOC6oO154zUz7L_qCr-24">
          <mxGeometry width="50" height="50" relative="1" as="geometry">
            <mxPoint x="220" y="700" as="sourcePoint" />
            <mxPoint x="270" y="650" as="targetPoint" />
          </mxGeometry>
        </mxCell>
        <mxCell id="TxsOC6oO154zUz7L_qCr-40" value="" style="endArrow=none;html=1;rounded=0;" edge="1" parent="1" source="TxsOC6oO154zUz7L_qCr-32" target="TxsOC6oO154zUz7L_qCr-24">
          <mxGeometry width="50" height="50" relative="1" as="geometry">
            <mxPoint x="450" y="930" as="sourcePoint" />
            <mxPoint x="500" y="880" as="targetPoint" />
          </mxGeometry>
        </mxCell>
        <mxCell id="TxsOC6oO154zUz7L_qCr-41" value="" style="endArrow=none;html=1;rounded=0;" edge="1" parent="1" source="TxsOC6oO154zUz7L_qCr-30" target="TxsOC6oO154zUz7L_qCr-24">
          <mxGeometry width="50" height="50" relative="1" as="geometry">
            <mxPoint x="420" y="970" as="sourcePoint" />
            <mxPoint x="470" y="920" as="targetPoint" />
          </mxGeometry>
        </mxCell>
        <mxCell id="TxsOC6oO154zUz7L_qCr-42" value="" style="endArrow=none;html=1;rounded=0;" edge="1" parent="1" source="TxsOC6oO154zUz7L_qCr-33" target="TxsOC6oO154zUz7L_qCr-24">
          <mxGeometry width="50" height="50" relative="1" as="geometry">
            <mxPoint x="220" y="700" as="sourcePoint" />
            <mxPoint x="270" y="650" as="targetPoint" />
          </mxGeometry>
        </mxCell>
      </root>
    </mxGraphModel>
  </diagram>
</mxfile>
